<?xml version="1.0" encoding="iso-8859-1"?>
<!-- Generator: Adobe Illustrator 18.0.0, SVG Export Plug-In . SVG Version: 6.00 Build 0)  -->
<!DOCTYPE svg PUBLIC "-//W3C//DTD SVG 1.1//EN" "http://www.w3.org/Graphics/SVG/1.1/DTD/svg11.dtd">
<svg version="1.1" id="Capa_1" xmlns="http://www.w3.org/2000/svg" xmlns:xlink="http://www.w3.org/1999/xlink" x="0px" y="0px"
	 viewBox="0 0 490 490" style="enable-background:new 0 0 490 490;" xml:space="preserve">
<g>
	<path d="M342.155,324.543c-5.521,0-10,4.477-10,10v44.533H88.13V72.285h244.025v46.014c0,5.524,4.479,10,10,10
		c5.523,0,10-4.476,10-10V10c0-5.523-4.477-10-10-10H78.13c-5.523,0-10,4.477-10,10v470c0,5.522,4.477,10,10,10h264.025
		c5.523,0,10-4.478,10-10V334.543C352.155,329.02,347.679,324.543,342.155,324.543z M332.155,20v32.285H88.13V20H332.155z
		 M88.13,470v-70.924h244.025V470H88.13z"/>
	<ellipse cx="210.22" cy="433.831" rx="15.115" ry="15.132"/>
	<path d="M259.728,249.128c-1.908-5.188-7.658-7.845-12.838-5.931l-6.439,2.375c-0.936-1.493-1.953-2.934-3.043-4.316l4.391-5.279
		c3.535-4.249,2.961-10.562-1.283-14.1c-4.242-3.536-10.551-2.957-14.084,1.292l-4.379,5.263c-1.549-0.822-3.146-1.57-4.799-2.227
		l1.162-6.738c0.938-5.45-2.713-10.627-8.154-11.565c-5.443-0.938-10.617,2.718-11.557,8.168l-1.16,6.739
		c-1.777,0.064-3.535,0.234-5.27,0.491l-2.363-6.425c-1.908-5.188-7.658-7.844-12.84-5.932c-5.184,1.913-7.838,7.668-5.93,12.856
		l2.371,6.444c-1.492,0.938-2.932,1.955-4.313,3.049l-5.271-4.394c-4.24-3.538-10.551-2.959-14.084,1.29
		c-3.535,4.25-2.961,10.563,1.283,14.1l5.256,4.381c-0.822,1.551-1.57,3.151-2.225,4.807l-6.732-1.161
		c-5.443-0.938-10.617,2.719-11.555,8.168v0.001l0,0c-0.939,5.449,2.711,10.626,8.154,11.564l6.73,1.16
		c0.064,1.777,0.234,3.537,0.488,5.273l-6.418,2.368c-5.184,1.913-7.838,7.668-5.93,12.856s7.658,7.845,12.84,5.931l6.438-2.375
		c0.936,1.492,1.951,2.934,3.043,4.315l-4.391,5.279c-3.533,4.25-2.959,10.563,1.285,14.1c4.242,3.537,10.549,2.958,14.084-1.291
		l4.377-5.264c1.549,0.822,3.148,1.57,4.801,2.227l-1.162,6.74c-0.938,5.449,2.711,10.627,8.154,11.564
		c5.443,0.939,10.617-2.719,11.555-8.168l1.162-6.739c1.777-0.065,3.533-0.235,5.268-0.491l2.363,6.425
		c1.908,5.187,7.658,7.845,12.84,5.931c5.184-1.912,7.838-7.668,5.93-12.855l-2.371-6.445c1.492-0.937,2.932-1.955,4.313-3.048
		l5.273,4.393c4.24,3.538,10.549,2.959,14.084-1.291c3.533-4.25,2.959-10.563-1.285-14.1l-5.256-4.38
		c0.822-1.552,1.57-3.151,2.227-4.807l6.73,1.161c5.443,0.938,10.617-2.719,11.557-8.168l0,0l0,0
		c0.939-5.45-2.713-10.627-8.154-11.565l-6.732-1.159c-0.063-1.779-0.232-3.538-0.488-5.275l6.42-2.367
		C258.981,260.071,261.636,254.315,259.728,249.128z M227.483,276.273L227.483,276.273c-2.68,15.551-17.498,26.025-33.031,23.348
		c-15.533-2.677-25.99-17.507-23.311-33.058v-0.001l0,0c2.68-15.552,17.498-26.025,33.033-23.349
		c15.531,2.677,25.99,17.507,23.309,33.058V276.273z"/>
	<path d="M411.87,215.586h-11.1c-0.627-3.686-1.58-7.259-2.852-10.682l9.615-5.56c4.781-2.765,6.418-8.881,3.652-13.662
		c-2.762-4.78-8.877-6.417-13.662-3.652l-9.623,5.563c-2.354-2.834-4.963-5.445-7.795-7.801l5.568-9.658
		c2.76-4.785,1.117-10.9-3.668-13.658c-4.785-2.761-10.898-1.117-13.658,3.667l-5.547,9.619c-3.412-1.269-6.975-2.222-10.646-2.847
		v-11.128c0-5.523-4.479-10-10-10c-5.523,0-10.002,4.477-10.002,10v11.128c-3.672,0.625-7.234,1.578-10.646,2.847l-5.547-9.619
		c-2.76-4.784-8.873-6.428-13.658-3.667c-4.785,2.758-6.428,8.873-3.668,13.658l5.568,9.658c-2.832,2.355-5.441,4.967-7.795,7.801
		l-9.623-5.563c-4.785-2.765-10.9-1.128-13.662,3.652c-2.766,4.781-1.129,10.897,3.652,13.662l9.615,5.56
		c-1.271,3.423-2.225,6.996-2.852,10.682h-11.1c-5.523,0-10,4.477-10,10l0,0l0,0c0,5.523,4.477,10,10,10h11.1
		c0.627,3.686,1.58,7.259,2.852,10.682l-9.615,5.56c-4.781,2.765-6.418,8.881-3.652,13.662c2.762,4.78,8.877,6.417,13.662,3.652
		l9.623-5.564c2.354,2.834,4.963,5.445,7.795,7.801l-5.568,9.658c-2.76,4.785-1.117,10.9,3.668,13.658
		c4.785,2.761,10.898,1.117,13.658-3.667l5.547-9.619c3.412,1.268,6.975,2.222,10.646,2.847v11.128c0,5.522,4.479,10,10.002,10
		c5.521,0,10-4.478,10-10v-11.128c3.672-0.625,7.234-1.578,10.646-2.847l5.547,9.619c2.76,4.784,8.873,6.428,13.658,3.667
		c4.785-2.758,6.428-8.873,3.668-13.658l-5.568-9.658c2.832-2.355,5.441-4.967,7.795-7.801l9.623,5.564
		c4.785,2.765,10.9,1.128,13.662-3.652c2.766-4.781,1.129-10.897-3.652-13.662l-9.615-5.56c1.271-3.423,2.225-6.996,2.852-10.682
		h11.1c5.523,0,10-4.477,10-10l0,0l0,0C421.87,220.063,417.393,215.586,411.87,215.586z M381.626,225.586L381.626,225.586
		c0,21.797-17.707,39.529-39.471,39.529c-21.766,0-39.473-17.732-39.473-39.529l0,0l0,0c0-21.797,17.707-39.529,39.473-39.529
		C363.919,186.057,381.626,203.789,381.626,225.586L381.626,225.586z"/>
</g>
<g>
</g>
<g>
</g>
<g>
</g>
<g>
</g>
<g>
</g>
<g>
</g>
<g>
</g>
<g>
</g>
<g>
</g>
<g>
</g>
<g>
</g>
<g>
</g>
<g>
</g>
<g>
</g>
<g>
</g>
</svg>
